<svg xmlns="http://www.w3.org/2000/svg" viewBox="0 0 1024 1024" width="64" height="64" fill="#000000">
  <path d="M405.333333 640H192v64h138.666667c38.4 0 74.666667-25.6 74.666666-64z"></path>
  <path d="M917.333333 832H106.666667c-23.466667 0-42.666667-19.2-42.666667-42.666667V234.666667c0-23.466667 19.2-42.666667 42.666667-42.666667h810.666666c23.466667 0 42.666667 19.2 42.666667 42.666667v554.666666c0 23.466667-19.2 42.666667-42.666667 42.666667zM128 768h768V256H128v512z"></path>
  <path d="M896 416H128c-17.066667 0-32-14.933333-32-32s14.933333-32 32-32h768c17.066667 0 32 14.933333 32 32s-14.933333 32-32 32z"></path>
</svg>
