<svg xmlns="http://www.w3.org/2000/svg" viewBox="0 0 1024 1024" width="64" height="64" fill="#000000">
  <path d="M512 938.666667C277.333333 938.666667 85.333333 746.666667 85.333333 512S277.333333 85.333333 512 85.333333s426.666667 192 426.666667 426.666667-192 426.666667-426.666667 426.666667z m0-789.333334C311.466667 149.333333 149.333333 311.466667 149.333333 512s162.133333 362.666667 362.666667 362.666667 362.666667-162.133333 362.666667-362.666667S712.533333 149.333333 512 149.333333z"></path>
  <path d="M512 721.066667c-27.733333 0-51.2-17.066667-59.733333-42.666667l-27.733334-78.933333-74.666666-25.6c-25.6-8.533333-42.666667-34.133333-42.666667-61.866667 0-27.733333 17.066667-51.2 44.8-59.733333L426.666667 426.666667l23.466666-74.666667c8.533333-27.733333 32-44.8 59.733334-44.8 27.733333 0 51.2 17.066667 59.733333 44.8L597.333333 426.666667l76.8 25.6c25.6 8.533333 42.666667 32 44.8 59.733333 0 27.733333-17.066667 51.2-42.666666 61.866667l-74.666667 25.6-27.733333 76.8c-10.666667 27.733333-34.133333 44.8-61.866667 44.8z m0-347.733334L488.533333 448c-6.4 19.2-21.333333 34.133333-40.533333 40.533333L371.2 512l74.666667 25.6c19.2 6.4 32 21.333333 40.533333 40.533333l27.733333 78.933334 27.733334-76.8c6.4-19.2 21.333333-32 38.4-38.4l74.666666-25.6-76.8-25.6c-19.2-6.4-34.133333-21.333333-40.533333-40.533334L512 373.333333z"></path>
</svg>
