<svg xmlns="http://www.w3.org/2000/svg" viewBox="0 0 1024 1024" width="64" height="64" fill="#000000">
  <path d="M644.266667 704h192v-64H704c-34.133333 0-59.733333 25.6-59.733333 64z"></path>
  <path d="M917.333333 832H347.733333c-4.266667 0-10.666667-2.133333-14.933333-4.266667l-61.866667-32-61.866666 32c-4.266667 2.133333-10.666667 4.266667-14.933334 4.266667H106.666667c-23.466667 0-42.666667-19.2-42.666667-42.666667V234.666667c0-23.466667 19.2-42.666667 42.666667-42.666667h87.466666c4.266667 0 10.666667 2.133333 14.933334 4.266667l61.866666 32 61.866667-32c4.266667-2.133333 8.533333-4.266667 14.933333-4.266667H917.333333c23.466667 0 42.666667 19.2 42.666667 42.666667v554.666666c0 23.466667-19.2 42.666667-42.666667 42.666667z m-563.2-64H896V256H354.133333L298.666667 283.733333c-19.2 8.533333-40.533333 8.533333-59.733334 0L185.6 256H128v512h57.6l55.466667-27.733333c19.2-8.533333 40.533333-8.533333 59.733333 0l53.333333 27.733333z"></path>
  <path d="M288 800c-17.066667 0-32-14.933333-32-32s14.933333-32 32-32 32 14.933333 32 32-14.933333 32-32 32z m0-128c-17.066667 0-32-14.933333-32-32v-128c0-17.066667 14.933333-32 32-32s32 14.933333 32 32v128c0 17.066667-14.933333 32-32 32z m0-256c-17.066667 0-32-14.933333-32-32v-128c0-17.066667 14.933333-32 32-32s32 14.933333 32 32v128c0 17.066667-14.933333 32-32 32z"></path>
</svg>
