<svg xmlns="http://www.w3.org/2000/svg" viewBox="0 0 1024 1024" width="64" height="64" fill="#000000">
  <path d="M422.208 436.650667h-158.272v64h90.026667c37.674667 0 68.266667-28.650667 68.266666-64"></path>
  <path d="M571.178667 473.28a42.666667 42.666667 0 1 1-85.333334 0 42.666667 42.666667 0 1 1 85.333334 0zM715.925333 473.28a42.666667 42.666667 0 1 1-85.333333 0 42.666667 42.666667 0 1 1 85.333333 0z"></path>
  <path d="M96 215.893333a64 64 0 0 1 64-64h704a64 64 0 0 1 64 64v488.853334a64 64 0 0 1-64 64H640.938667l-234.688 126.016a32 32 0 0 1-47.146667-28.202667v-97.813333H160a64 64 0 0 1-64-64V215.893333z m64 0v488.853334h231.104a32 32 0 0 1 32 32v76.309333l194.645333-104.512c4.650667-2.496 9.856-3.797333 15.146667-3.797333H864V215.893333h-704z"></path>
</svg>
