<svg xmlns="http://www.w3.org/2000/svg" viewBox="0 0 1024 1024" width="64" height="64" fill="#000000">
  <path d="M189.866667 266.666667a76.8 76.8 0 0 1 76.8-76.8h70.250666a34.133333 34.133333 0 1 1 0 68.266666H266.666667a8.533333 8.533333 0 0 0-8.533334 8.533334v618.666666c0 4.693333 3.818667 8.533333 8.533334 8.533334h490.666666a8.533333 8.533333 0 0 0 8.533334-8.533334v-618.666666a8.533333 8.533333 0 0 0-8.533334-8.533334h-70.250666a34.133333 34.133333 0 1 1 0-68.266666H757.333333a76.8 76.8 0 0 1 76.8 76.8v618.666666a76.8 76.8 0 0 1-76.8 76.8h-490.666666a76.8 76.8 0 0 1-76.8-76.8v-618.666666z"></path>
  <path d="M328.533333 202.666667A76.8 76.8 0 0 1 405.333333 125.866667h213.333334a76.8 76.8 0 0 1 76.8 76.8v42.666666a76.8 76.8 0 0 1-76.8 76.8H405.333333a76.8 76.8 0 0 1-76.8-76.8v-42.666666z m76.8-8.533334a8.533333 8.533333 0 0 0-8.533333 8.533334v42.666666c0 4.693333 3.818667 8.533333 8.533333 8.533334h213.333334a8.533333 8.533333 0 0 0 8.533333-8.533334v-42.666666a8.533333 8.533333 0 0 0-8.533333-8.533334H405.333333z"></path>
  <path d="M362.666667 629.333333a32 32 0 0 1 32-32H554.666667v18.282667C554.666667 640.874667 534.186667 661.333333 508.949333 661.333333H394.666667a32 32 0 0 1-32-32z"></path>
  <path d="M352 469.333333m32 0l256 0q32 0 32 32l0 0q0 32-32 32l-256 0q-32 0-32-32l0 0q0-32 32-32Z"></path>
</svg>
