<svg xmlns="http://www.w3.org/2000/svg" viewBox="0 0 1024 1024" width="64" height="64" fill="#000000">
  <path d="M165.589333 578.005333c-83.584-83.584-83.584-219.093333 0-302.677333 83.584-83.584 219.093333-83.584 302.677334 0l43.797333 43.797333 43.797333-43.797333c83.562667-83.584 219.093333-83.584 302.656 0 83.584 83.562667 83.584 219.093333 0 302.656l-323.84 323.84a32 32 0 0 1-45.226666 0l-323.84-323.84z m45.269334-257.429333a150.016 150.016 0 0 0 0 212.181333l301.205333 301.205334 301.205333-301.226667a150.016 150.016 0 1 0-212.16-212.16l-66.432 66.432a32 32 0 0 1-45.248 0l-66.410666-66.432a150.016 150.016 0 0 0-212.16 0z"></path>
</svg>
